<svg width="20" height="23" viewBox="0 0 20 23" fill="none" xmlns="http://www.w3.org/2000/svg">
<path d="M14 17.2501C14.4142 17.2501 14.75 16.9144 14.75 16.5001C14.75 16.0859 14.4142 15.7501 14 15.7501V17.2501ZM6.99998 15.7501C6.58577 15.7501 6.24998 16.0859 6.24998 16.5001C6.24998 16.9144 6.58577 17.2501 6.99998 17.2501V15.7501ZM14 13.2501C14.4142 13.2501 14.75 12.9144 14.75 12.5001C14.75 12.0859 14.4142 11.7501 14 11.7501V13.2501ZM11 11.7501C10.5858 11.7501 10.25 12.0859 10.25 12.5001C10.25 12.9144 10.5858 13.2501 11 13.2501V11.7501ZM15.7352 1.7522L15.9836 1.04454L15.7352 1.7522ZM18.232 4.10214L18.9293 3.82583L18.232 4.10214ZM1.96894 6.05375L2.66618 6.33006L1.96894 6.05375ZM6.33836 1.94135L6.08994 1.23369L6.33836 1.94135ZM3.20307 20.7022L2.7711 21.3153L3.20307 20.7022ZM2.3477 19.8971L2.93467 19.4302L2.3477 19.8971ZM0.75 11.5C0.75 11.9142 1.08579 12.25 1.5 12.25C1.91421 12.25 2.25 11.9142 2.25 11.5H0.75ZM4.83333 8.16667V8.91667H4.83333L4.83333 8.16667ZM8.10988 6.93137L7.38543 6.73725V6.73725L8.10988 6.93137ZM6.93137 8.10988L7.12548 8.83432L6.93137 8.10988ZM11.5 2.25C11.9142 2.25 12.25 1.91421 12.25 1.5C12.25 1.08579 11.9142 0.75 11.5 0.75V2.25ZM14 15.7501H6.99998V17.2501H14V15.7501ZM14 11.7501H11V13.2501H14V11.7501ZM10 20.75H9.22727V22.25H10V20.75ZM2.25 14.2273V11.6818H0.75V14.2273H2.25ZM17.75 7.31818V13.5H19.25V7.31818H17.75ZM12.3182 2.25C14.1807 2.25 14.9195 2.26071 15.4868 2.45987L15.9836 1.04454C15.1141 0.739293 14.0538 0.75 12.3182 0.75V2.25ZM19.25 7.31818C19.25 6.48145 19.2504 5.81764 19.2149 5.2794C19.1789 4.73447 19.1039 4.26657 18.9293 3.82583L17.5348 4.37846C17.6281 4.61389 17.6871 4.90739 17.7181 5.37812C17.7496 5.85555 17.75 6.46167 17.75 7.31818H19.25ZM15.4868 2.45987C16.4477 2.79718 17.1882 3.50397 17.5348 4.37846L18.9293 3.82583C18.4143 2.52622 17.3327 1.51811 15.9836 1.04454L15.4868 2.45987ZM2.25 11.6818C2.25 10.1903 2.25038 9.108 2.30699 8.2497C2.36316 7.39809 2.47239 6.81907 2.66618 6.33006L1.27169 5.77744C0.996543 6.47174 0.871307 7.22517 0.810243 8.15098C0.749621 9.07008 0.75 10.2101 0.75 11.6818H2.25ZM12.3182 0.75C9.23328 0.75 7.49831 0.739294 6.08994 1.23369L6.58678 2.64902C7.69294 2.26071 9.10634 2.25 12.3182 2.25V0.75ZM2.66618 6.33006C3.33582 4.6403 4.75963 3.29042 6.58678 2.64902L6.08994 1.23369C3.87464 2.01135 2.1098 3.66255 1.27169 5.77744L2.66618 6.33006ZM9.22727 20.75C7.58055 20.75 6.40354 20.749 5.49462 20.6543C4.59765 20.5608 4.05221 20.383 3.63504 20.0891L2.7711 21.3153C3.48632 21.8192 4.32238 22.0403 5.33912 22.1462C6.3439 22.251 7.61279 22.25 9.22727 22.25V20.75ZM0.75 14.2273C0.75 15.7438 0.748787 16.9466 0.861101 17.9012C0.975489 18.8733 1.21584 19.6789 1.76073 20.364L2.93467 19.4302C2.63186 19.0495 2.44836 18.5549 2.35082 17.7259C2.25121 16.8793 2.25 15.7801 2.25 14.2273H0.75ZM3.63504 20.0891C3.36794 19.9009 3.13234 19.6788 2.93467 19.4302L1.76073 20.364C2.04882 20.7262 2.3893 21.0463 2.7711 21.3153L3.63504 20.0891ZM10 22.25C11.9835 22.25 13.5422 22.2514 14.7576 22.0976C15.9901 21.9417 16.9829 21.6147 17.7692 20.8746L16.7412 19.7823C16.2827 20.2138 15.6514 20.4726 14.5693 20.6095C13.47 20.7486 12.0235 20.75 10 20.75V22.25ZM17.75 13.5C17.75 15.4081 17.7482 16.7591 17.6019 17.783C17.4594 18.7805 17.1932 19.3568 16.7412 19.7823L17.7692 20.8746C18.562 20.1284 18.9182 19.1762 19.0869 17.9951C19.2518 16.8406 19.25 15.3631 19.25 13.5H17.75ZM2.25 11.5C2.25 10.0733 3.4066 8.91667 4.83333 8.91667V7.41667C2.57817 7.41667 0.75 9.24484 0.75 11.5H2.25ZM7.38543 6.73725C7.30067 7.05359 7.05358 7.30067 6.73725 7.38543L7.12548 8.83432C7.95945 8.61086 8.61086 7.95945 8.83432 7.12548L7.38543 6.73725ZM11.5 0.75C9.24484 0.75 7.41667 2.57817 7.41667 4.83333H8.91667C8.91667 3.4066 10.0733 2.25 11.5 2.25V0.75ZM7.41667 4.83333C7.41667 5.0191 7.42478 5.2087 7.43299 5.38576C7.44145 5.56807 7.44999 5.73675 7.45348 5.90484C7.46055 6.24549 7.44416 6.51807 7.38543 6.73725L8.83432 7.12548C8.94904 6.69733 8.96105 6.25379 8.95315 5.8737C8.94916 5.68143 8.93937 5.48858 8.93138 5.31624C8.92314 5.13864 8.91667 4.98046 8.91667 4.83333H7.41667ZM4.83333 8.91667C4.98046 8.91667 5.13864 8.92314 5.31624 8.93138C5.48858 8.93937 5.68143 8.94916 5.8737 8.95315C6.25379 8.96105 6.69733 8.94904 7.12548 8.83432L6.73725 7.38543C6.51807 7.44416 6.24549 7.46055 5.90484 7.45348C5.73675 7.44999 5.56807 7.44145 5.38576 7.43299C5.2087 7.42478 5.01909 7.41667 4.83333 7.41667L4.83333 8.91667Z" fill="#909090"/>
</svg>
