<svg width="24" height="25" viewBox="0 0 24 25" fill="none" xmlns="http://www.w3.org/2000/svg">
<path d="M12 16.7501C11.5858 16.7501 11.25 17.0859 11.25 17.5001C11.25 17.9143 11.5858 18.2501 12 18.2501V16.7501ZM12.009 18.2501C12.4232 18.2501 12.759 17.9143 12.759 17.5001C12.759 17.0859 12.4232 16.7501 12.009 16.7501V18.2501ZM5.17159 20.8285L5.70192 20.2982H5.70192L5.17159 20.8285ZM17.6569 6.83561L17.1378 7.37695L17.6569 6.83561ZM21.4809 11.5415C21.7799 11.8281 22.2547 11.8182 22.5414 11.5192C22.828 11.2202 22.8181 10.7455 22.5191 10.4588L21.4809 11.5415ZM1.48093 10.4588C1.18196 10.7455 1.17199 11.2202 1.45867 11.5192C1.74535 11.8182 2.22012 11.8281 2.5191 11.5415L1.48093 10.4588ZM6.34317 6.8356L6.86225 7.37695H6.86225L6.34317 6.8356ZM12 18.2501H12.009V16.7501H12V18.2501ZM19.25 9.00012V14.0001H20.75V9.00012H19.25ZM4.75002 14.0001V9.00012H3.25002V14.0001H4.75002ZM12 21.2501C10.0932 21.2501 8.73853 21.2485 7.71086 21.1104C6.70477 20.9751 6.12513 20.7214 5.70192 20.2982L4.64126 21.3589C5.38962 22.1072 6.33857 22.4394 7.51099 22.597C8.66184 22.7517 10.1356 22.7501 12 22.7501V21.2501ZM3.25002 14.0001C3.25002 15.8645 3.24842 17.3383 3.40315 18.4891C3.56078 19.6616 3.89289 20.6105 4.64126 21.3589L5.70192 20.2982C5.27871 19.875 5.02504 19.2954 4.88977 18.2893C4.75161 17.2616 4.75002 15.9069 4.75002 14.0001H3.25002ZM19.25 14.0001C19.25 15.9069 19.2484 17.2616 19.1103 18.2893C18.975 19.2954 18.7213 19.875 18.2981 20.2982L19.3588 21.3589C20.1071 20.6105 20.4393 19.6616 20.5969 18.4891C20.7516 17.3383 20.75 15.8645 20.75 14.0001H19.25ZM12 22.7501C13.8644 22.7501 15.3382 22.7517 16.489 22.597C17.6615 22.4394 18.6104 22.1072 19.3588 21.3589L18.2981 20.2982C17.8749 20.7214 17.2953 20.9751 16.2892 21.1104C15.2615 21.2485 13.9068 21.2501 12 21.2501V22.7501ZM17.1378 7.37695L21.4809 11.5415L22.5191 10.4588L18.1759 6.29426L17.1378 7.37695ZM2.5191 11.5415L6.86225 7.37695L5.82408 6.29426L1.48093 10.4588L2.5191 11.5415ZM18.1759 6.29426C16.8577 5.03022 15.8162 4.02937 14.8926 3.35369C13.9505 2.66448 13.0489 2.25012 12 2.25012V3.75012C12.608 3.75012 13.2014 3.97502 14.0069 4.5643C14.8309 5.16712 15.7894 6.08401 17.1378 7.37695L18.1759 6.29426ZM6.86225 7.37695C8.21065 6.084 9.16913 5.16711 9.99311 4.5643C10.7986 3.97502 11.392 3.75012 12 3.75012V2.25012C10.9512 2.25012 10.0495 2.66448 9.10743 3.35369C8.18386 4.02937 7.14234 5.03022 5.82408 6.29426L6.86225 7.37695Z" fill="#909090"/>
</svg>
