<svg width="24" height="25" viewBox="0 0 24 25" fill="none" xmlns="http://www.w3.org/2000/svg">
<path d="M18.1429 8.64301H17.3929C17.3929 9.05722 17.7287 9.39301 18.1429 9.39301V8.64301ZM22.0607 6.64681L22.8055 6.55855L22.0607 6.64681ZM21.917 8.30755L21.3586 7.80692L21.917 8.30755ZM7.17201 20.9503L6.77193 21.5847L6.77193 21.5847L7.17201 20.9503ZM9.08289 22.1554L8.68281 22.7898H8.68281L9.08289 22.1554ZM18.8929 8.69726C18.8929 8.28305 18.5571 7.94726 18.1429 7.94726C17.7287 7.94726 17.3929 8.28305 17.3929 8.69726H18.8929ZM13.1138 20.9503L13.5138 21.5847L13.5138 21.5847L13.1138 20.9503ZM11.2029 22.1554L10.8028 21.521H10.8028L11.2029 22.1554ZM20.1429 3.39301C20.5571 3.39301 20.8929 3.05722 20.8929 2.64301C20.8929 2.22879 20.5571 1.89301 20.1429 1.89301V3.39301ZM15.172 20.9503L14.7719 21.5847L14.7719 21.5847L15.172 20.9503ZM14.1754 20.4827L14.2 19.7331H14.2L14.1754 20.4827ZM17.6809 21.8538L18.087 22.4844L18.087 22.4844L17.6809 21.8538ZM6.17542 20.4827L6.20004 19.7331H6.20003L6.17542 20.4827ZM2.60484 21.8538L2.19872 22.4844L2.19872 22.4844L2.60484 21.8538ZM5.11376 20.9503L5.51383 21.5847L5.51383 21.5847L5.11376 20.9503ZM18.8929 8.64301C18.8929 7.04483 19.1117 5.62925 19.4443 4.63925C19.6119 4.14039 19.7949 3.79071 19.9614 3.58103C20.1342 3.36356 20.2063 3.39301 20.1589 3.39301V1.89301C19.5549 1.89301 19.0966 2.25824 18.7869 2.648C18.4711 3.04555 18.2196 3.57455 18.0224 4.16148C17.6254 5.34305 17.3929 6.92747 17.3929 8.64301H18.8929ZM20.1589 3.39301C20.123 3.39301 20.1566 3.37263 20.2638 3.47731C20.3742 3.58504 20.5123 3.77983 20.6559 4.08748C20.9418 4.69993 21.1833 5.61578 21.3159 6.73507L22.8055 6.55855C22.6617 5.34547 22.3915 4.25942 22.0151 3.45306C21.8276 3.0513 21.597 2.68246 21.3116 2.40391C21.0231 2.12231 20.6339 1.89301 20.1589 1.89301V3.39301ZM20.1589 7.89301H18.1429V9.39301H20.1589V7.89301ZM21.3159 6.73507C21.3712 7.20175 21.3998 7.46223 21.3916 7.65016C21.3852 7.79783 21.3593 7.80606 21.3586 7.80692L22.4755 8.80818C22.7754 8.47359 22.8738 8.09321 22.8902 7.71525C22.9049 7.37756 22.8549 6.97539 22.8055 6.55855L21.3159 6.73507ZM20.1589 9.39301C20.6212 9.39301 21.0517 9.39497 21.4004 9.34283C21.7795 9.28616 22.1668 9.15254 22.4755 8.80818L21.3586 7.80692C21.3548 7.81114 21.3529 7.81361 21.3398 7.81958C21.3205 7.82844 21.2746 7.84498 21.1787 7.85932C20.9664 7.89104 20.6682 7.89301 20.1589 7.89301V9.39301ZM1.39288 8.69726V19.2888H2.89288V8.69726H1.39288ZM6.77193 21.5847L8.68281 22.7898L9.48296 21.521L7.57208 20.3159L6.77193 21.5847ZM17.3929 8.69726V19.2888H18.8929V8.69726H17.3929ZM12.7137 20.3159L10.8028 21.521L11.603 22.7898L13.5138 21.5847L12.7137 20.3159ZM8.14288 3.39301H20.1429V1.89301H8.14288V3.39301ZM15.5721 20.3159C15.342 20.1708 15.1242 20.0324 14.9286 19.9345C14.7187 19.8294 14.4814 19.7423 14.2 19.7331L14.1508 21.2323C14.1508 21.2323 14.1508 21.2323 14.1507 21.2323C14.1506 21.2322 14.1505 21.2322 14.1504 21.2322C14.1503 21.2322 14.1504 21.2322 14.1508 21.2323C14.1516 21.2324 14.155 21.233 14.1618 21.2351C14.1765 21.2395 14.2056 21.25 14.2569 21.2757C14.3711 21.3329 14.517 21.4239 14.7719 21.5847L15.5721 20.3159ZM17.3929 19.2888C17.3929 20.0683 17.3911 20.5722 17.3423 20.9233C17.2934 21.2746 17.2234 21.2564 17.2748 21.2233L18.087 22.4844C18.6004 22.1537 18.7614 21.6088 18.828 21.13C18.8946 20.6508 18.8929 20.021 18.8929 19.2888H17.3929ZM8.68281 22.7898C8.92732 22.944 9.15878 23.0911 9.36678 23.1937C9.5905 23.3041 9.84358 23.393 10.1429 23.393V21.893C10.1429 21.893 10.143 21.893 10.1424 21.8929C10.1416 21.8928 10.1381 21.8923 10.131 21.8903C10.1158 21.886 10.085 21.8754 10.0305 21.8485C9.90905 21.7886 9.7539 21.6919 9.48296 21.521L8.68281 22.7898ZM10.8028 21.521C10.5319 21.6919 10.3767 21.7886 10.2553 21.8485C10.2008 21.8754 10.17 21.886 10.1547 21.8903C10.1476 21.8923 10.1441 21.8928 10.1434 21.8929C10.1428 21.893 10.1429 21.893 10.1429 21.893V23.393C10.4422 23.393 10.6953 23.3041 10.919 23.1937C11.127 23.0911 11.3584 22.944 11.603 22.7898L10.8028 21.521ZM7.57208 20.3159C7.342 20.1708 7.12417 20.0324 6.92861 19.9345C6.7187 19.8294 6.48143 19.7423 6.20004 19.7331L6.15079 21.2323C6.1508 21.2323 6.15075 21.2323 6.15067 21.2323C6.15059 21.2322 6.15051 21.2322 6.15045 21.2322C6.15028 21.2322 6.15038 21.2322 6.15082 21.2323C6.15156 21.2324 6.15497 21.233 6.16181 21.2351C6.17649 21.2395 6.20561 21.25 6.25692 21.2757C6.37113 21.3329 6.51704 21.4239 6.77193 21.5847L7.57208 20.3159ZM1.39288 19.2888C1.39288 20.021 1.39113 20.6508 1.45778 21.13C1.5244 21.6088 1.68535 22.1537 2.19872 22.4844L3.01095 21.2233C3.06237 21.2564 2.99235 21.2746 2.94347 20.9233C2.89464 20.5722 2.89288 20.0683 2.89288 19.2888H1.39288ZM2.89288 8.69726C2.89288 7.24924 2.89445 6.23801 2.99615 5.47474C3.09506 4.73235 3.27631 4.33805 3.55427 4.05757L2.48885 3.00169C1.88814 3.60784 1.63004 4.37035 1.50929 5.27662C1.39132 6.16201 1.39288 7.29128 1.39288 8.69726H2.89288ZM8.14288 1.89301C6.75006 1.89301 5.62932 1.89138 4.75024 2.01064C3.8489 2.13292 3.09049 2.39461 2.48885 3.00169L3.55427 4.05757C3.83131 3.77802 4.21935 3.5964 4.95189 3.49703C5.7067 3.39463 6.70728 3.39301 8.14288 3.39301V1.89301ZM5.51383 21.5847C5.78664 21.4126 5.93767 21.321 6.05078 21.2679C6.10064 21.2444 6.12688 21.2366 6.13784 21.234C6.14579 21.232 6.14784 21.2322 6.1508 21.2323L6.20003 19.7331C5.90231 19.7233 5.64853 19.7996 5.41332 19.9101C5.19931 20.0105 4.96492 20.1575 4.71368 20.3159L5.51383 21.5847ZM13.5138 21.5847C13.7866 21.4126 13.9377 21.321 14.0508 21.2679C14.1006 21.2444 14.1269 21.2366 14.1378 21.234C14.1458 21.232 14.1478 21.2322 14.1508 21.2323L14.2 19.7331C13.9023 19.7233 13.6485 19.7996 13.4133 19.9101C13.1993 20.0105 12.9649 20.1575 12.7137 20.3159L13.5138 21.5847ZM4.71368 20.3159C4.551 20.4185 4.33222 20.5764 4.15545 20.6979C3.95872 20.8331 3.76377 20.9597 3.57462 21.0587C3.38091 21.16 3.23092 21.2121 3.12385 21.2278C3.07421 21.2351 3.04503 21.2328 3.0312 21.2304C3.01986 21.2285 3.01538 21.2262 3.01095 21.2233L2.19872 22.4844C2.95723 22.9729 3.79788 22.6347 4.26997 22.3877C4.54032 22.2463 4.79437 22.0789 5.00513 21.9341C5.23585 21.7755 5.38305 21.6671 5.51383 21.5847L4.71368 20.3159ZM14.7719 21.5847C14.9027 21.6671 15.0499 21.7755 15.2806 21.9341C15.4914 22.0789 15.7454 22.2463 16.0158 22.3877C16.4879 22.6347 17.3285 22.9729 18.087 22.4844L17.2748 21.2233C17.2704 21.2262 17.2659 21.2285 17.2546 21.2304C17.2407 21.2328 17.2116 21.2351 17.1619 21.2278C17.0548 21.2121 16.9049 21.16 16.7111 21.0587C16.522 20.9597 16.327 20.8331 16.1303 20.6979C15.9535 20.5764 15.7348 20.4185 15.5721 20.3159L14.7719 21.5847Z" fill="#909090"/>
<path d="M10.1429 8.6427C9.03831 8.6427 8.14288 9.31427 8.14288 10.1427C8.14288 10.9711 9.03831 11.6427 10.1429 11.6427C11.2475 11.6427 12.1429 12.3143 12.1429 13.1427C12.1429 13.9711 11.2475 14.6427 10.1429 14.6427M10.1429 8.6427C11.0137 8.6427 11.7545 9.0601 12.0291 9.6427M10.1429 8.6427V7.6427M10.1429 14.6427C9.27207 14.6427 8.53124 14.2253 8.25669 13.6427M10.1429 14.6427V15.6427" stroke="#909090" stroke-width="1.5" stroke-linecap="round"/>
</svg>
