<svg width="24" height="25" viewBox="0 0 24 25" fill="none" xmlns="http://www.w3.org/2000/svg">
<path d="M5.25001 17.4999C5.25001 17.9141 5.5858 18.2499 6.00001 18.2499C6.41423 18.2499 6.75001 17.9141 6.75001 17.4999H5.25001ZM21.1213 3.37856L21.6517 2.84823V2.84823L21.1213 3.37856ZM16.2022 19.4845L16.9337 19.319L16.2022 19.4845ZM2.17265 19.4845L1.44114 19.65L2.17265 19.4845ZM2.19449 17.8755L2.77982 18.3444H2.77983L2.19449 17.8755ZM10.5 6.74988C10.0858 6.74988 9.75002 7.08566 9.75002 7.49988C9.75002 7.91409 10.0858 8.24988 10.5 8.24988V6.74988ZM17.5 8.24988C17.9142 8.24988 18.25 7.91409 18.25 7.49988C18.25 7.08566 17.9142 6.74988 17.5 6.74988V8.24988ZM10.5 10.7499C10.0858 10.7499 9.75002 11.0857 9.75002 11.4999C9.75002 11.9141 10.0858 12.2499 10.5 12.2499V10.7499ZM14 12.2499C14.4142 12.2499 14.75 11.9141 14.75 11.4999C14.75 11.0857 14.4142 10.7499 14 10.7499V12.2499ZM12 3.24988H16V1.74988H12V3.24988ZM21.25 8.49988V18.4999H22.75V8.49988H21.25ZM6.75001 17.4999V8.49988H5.25001V17.4999H6.75001ZM12 1.74988C10.607 1.74988 9.4868 1.74829 8.60826 1.8664C7.70816 1.98742 6.95028 2.24631 6.34836 2.84823L7.40902 3.90889C7.68579 3.63212 8.07436 3.45168 8.80814 3.35302C9.56349 3.25147 10.5646 3.24988 12 3.24988V1.74988ZM6.75001 8.49988C6.75001 7.06446 6.75161 6.06335 6.85316 5.308C6.95182 4.57422 7.13226 4.18565 7.40902 3.90889L6.34836 2.84823C5.74645 3.45014 5.48755 4.20802 5.36654 5.10813C5.24842 5.98666 5.25001 7.10687 5.25001 8.49988H6.75001ZM16 3.24988C17.4354 3.24988 18.4365 3.25147 19.1919 3.35302C19.9257 3.45168 20.3142 3.63212 20.591 3.90889L21.6517 2.84823C21.0497 2.24631 20.2919 1.98742 19.3918 1.8664C18.5132 1.74829 17.393 1.74988 16 1.74988V3.24988ZM22.75 8.49988C22.75 7.10687 22.7516 5.98666 22.6335 5.10813C22.5125 4.20802 22.2536 3.45014 21.6517 2.84823L20.591 3.90889C20.8678 4.18565 21.0482 4.57422 21.1469 5.308C21.2484 6.06335 21.25 7.06446 21.25 8.49988H22.75ZM21.25 18.4999C21.25 19.5354 21.0608 20.3669 20.6999 20.9169C20.3709 21.4184 19.8613 21.7499 18.9937 21.7499V23.2499C20.3398 23.2499 21.3334 22.6859 21.9541 21.7397C22.543 20.842 22.75 19.6735 22.75 18.4999H21.25ZM18.9937 21.7499C18.466 21.7499 18.0603 21.5265 17.7234 21.1179C17.3689 20.6879 17.1009 20.058 16.9337 19.319L15.4707 19.65C15.6672 20.5183 16.0087 21.3962 16.566 22.0721C17.1408 22.7692 17.949 23.2499 18.9937 23.2499V21.7499ZM4.96412 21.7499C4.43643 21.7499 4.03072 21.5265 3.69379 21.1179C3.33934 20.6879 3.07137 20.058 2.90417 19.319L1.44114 19.65C1.6376 20.5183 1.97916 21.3962 2.53642 22.0721C3.11121 22.7692 3.9194 23.2499 4.96412 23.2499V21.7499ZM4.96412 23.2499H18.9937V21.7499H4.96412V23.2499ZM3.96201 18.2499H13.9831V16.7499H3.96201V18.2499ZM2.90417 19.319C2.80484 18.88 2.75635 18.6517 2.75051 18.486C2.74661 18.3754 2.76311 18.3652 2.77982 18.3444L1.60915 17.4066C1.32498 17.7613 1.23755 18.1445 1.25144 18.5389C1.2634 18.8782 1.35443 19.2667 1.44114 19.65L2.90417 19.319ZM3.96201 16.7499C3.49924 16.7499 3.05901 16.7475 2.70127 16.807C2.30292 16.8733 1.9109 17.0299 1.60915 17.4066L2.77983 18.3444C2.7889 18.3331 2.79273 18.3306 2.80121 18.3263C2.81589 18.3188 2.85625 18.3018 2.94756 18.2866C3.15393 18.2523 3.44701 18.2499 3.96201 18.2499V16.7499ZM16.9337 19.319C16.8204 18.8181 16.7246 18.3911 16.6188 18.0653C16.5169 17.7516 16.3636 17.3862 16.0456 17.1325L15.1101 18.3051C15.0665 18.2703 15.1088 18.2721 15.1921 18.5287C15.2716 18.7733 15.3507 19.1197 15.4707 19.65L16.9337 19.319ZM13.9831 18.2499C14.4403 18.2499 14.7226 18.2509 14.9274 18.2729C15.1245 18.2941 15.136 18.3257 15.1101 18.3051L16.0456 17.1325C15.7453 16.893 15.3995 16.8151 15.0879 16.7815C14.784 16.7489 14.4062 16.7499 13.9831 16.7499V18.2499ZM10.5 8.24988H17.5V6.74988H10.5V8.24988ZM10.5 12.2499H14V10.7499H10.5V12.2499Z" fill="#909090"/>
</svg>
