<svg width="24" height="25" viewBox="0 0 24 25" fill="none" xmlns="http://www.w3.org/2000/svg">
<path d="M21.2653 14.4125L20.8077 15.0068L21.2653 14.4125ZM22.6544 17.3691L22.0721 16.8964L22.0721 16.8964L22.6544 17.3691ZM20.774 17.7499C20.3598 17.7499 20.024 18.0857 20.024 18.4999C20.024 18.9142 20.3598 19.2499 20.774 19.2499V17.7499ZM19.0675 12.753C18.655 12.7157 18.2903 13.0198 18.253 13.4324C18.2157 13.8449 18.5198 14.2096 18.9324 14.2469L19.0675 12.753ZM2.7346 14.4125L3.19219 15.0068H3.19219L2.7346 14.4125ZM1.3455 17.3691L1.92783 16.8964L1.92783 16.8964L1.3455 17.3691ZM3.22591 19.2499C3.64013 19.2499 3.97591 18.9142 3.97591 18.4999C3.97591 18.0857 3.64013 17.7499 3.22591 17.7499V19.2499ZM5.06753 14.2469C5.48006 14.2096 5.78422 13.8449 5.7469 13.4324C5.70958 13.0198 5.34491 12.7157 4.93238 12.753L5.06753 14.2469ZM5.49995 12.2499C5.91417 12.2499 6.24995 11.9142 6.24995 11.4999C6.24995 11.0857 5.91417 10.7499 5.49995 10.7499V12.2499ZM5.49995 7.24994C5.91417 7.24994 6.24995 6.91415 6.24995 6.49994C6.24995 6.08573 5.91417 5.74994 5.49995 5.74994V7.24994ZM8.08372 15.6111L7.68928 14.9732L8.08372 15.6111ZM15.9161 15.6111L16.3106 14.9732H16.3106L15.9161 15.6111ZM6.01462 19.1474L5.48714 19.6805L6.01462 19.1474ZM17.9852 19.1474L17.4577 18.6142L17.9852 19.1474ZM20.8077 15.0068C21.2272 15.3298 21.717 15.6397 22.0394 16.0477C22.1873 16.235 22.2402 16.3758 22.2486 16.4752C22.255 16.551 22.2442 16.6843 22.0721 16.8964L23.2367 17.8417C23.6123 17.379 23.7875 16.8714 23.7433 16.3488C23.7011 15.8499 23.4669 15.4349 23.2164 15.1178C22.7418 14.5171 21.9893 14.0235 21.7229 13.8183L20.8077 15.0068ZM22.0721 16.8964C21.5767 17.5068 21.1735 17.7499 20.774 17.7499V19.2499C21.8731 19.2499 22.6619 18.55 23.2367 17.8417L22.0721 16.8964ZM18.9324 14.2469C19.5727 14.3048 20.2173 14.5522 20.8077 15.0068L21.7229 13.8183C20.9186 13.199 20.006 12.8379 19.0675 12.753L18.9324 14.2469ZM19.7499 8.99994C19.7499 9.96644 18.9664 10.7499 17.9999 10.7499V12.2499C19.7949 12.2499 21.2499 10.7949 21.2499 8.99994H19.7499ZM17.9999 7.24994C18.9664 7.24994 19.7499 8.03344 19.7499 8.99994H21.2499C21.2499 7.20501 19.7949 5.74994 17.9999 5.74994V7.24994ZM2.27701 13.8183C2.01057 14.0235 1.25809 14.5171 0.783495 15.1178C0.533012 15.4349 0.298773 15.8499 0.2566 16.3488C0.212434 16.8714 0.387609 17.379 0.763166 17.8417L1.92783 16.8964C1.75566 16.6843 1.74486 16.551 1.75127 16.4752C1.75967 16.3758 1.81255 16.235 1.96053 16.0477C2.28285 15.6397 2.77266 15.3298 3.19219 15.0068L2.27701 13.8183ZM0.763166 17.8417C1.33802 18.55 2.12682 19.2499 3.22591 19.2499V17.7499C2.8264 17.7499 2.42322 17.5068 1.92783 16.8964L0.763166 17.8417ZM4.93238 12.753C3.99385 12.8379 3.0813 13.199 2.27701 13.8183L3.19219 15.0068C3.78256 14.5522 4.42722 14.3048 5.06753 14.2469L4.93238 12.753ZM2.24995 8.99994C2.24995 10.7949 3.70503 12.2499 5.49995 12.2499V10.7499C4.53346 10.7499 3.74995 9.96644 3.74995 8.99994H2.24995ZM5.49995 5.74994C3.70503 5.74994 2.24995 7.20501 2.24995 8.99994H3.74995C3.74995 8.03344 4.53346 7.24994 5.49995 7.24994V5.74994ZM8.47817 16.249C10.6325 14.9169 13.3673 14.9169 15.5217 16.249L16.3106 14.9732C13.6728 13.3422 10.3271 13.3422 7.68928 14.9732L8.47817 16.249ZM8.81555 21.2499H15.1843V19.7499H8.81555V21.2499ZM6.5421 18.6142C6.24781 18.323 6.2442 18.1527 6.25173 18.0811C6.26368 17.9676 6.34376 17.7858 6.58875 17.5368C7.09828 17.0189 7.88616 16.6151 8.47817 16.249L7.68928 14.9732C7.25951 15.239 6.19698 15.7962 5.51947 16.4848C5.17094 16.8391 4.82335 17.322 4.75997 17.9241C4.69217 18.5683 4.96557 19.1645 5.48714 19.6805L6.5421 18.6142ZM15.5217 16.249C16.1137 16.6151 16.9016 17.0189 17.4111 17.5368C17.6561 17.7858 17.7362 17.9676 17.7481 18.0811C17.7556 18.1527 17.752 18.323 17.4577 18.6142L18.5127 19.6805C19.0343 19.1645 19.3077 18.5683 19.2399 17.9241C19.1765 17.322 18.8289 16.8391 18.4804 16.4848C17.8029 15.7962 16.7403 15.239 16.3106 14.9732L15.5217 16.249ZM17.4577 18.6142C16.7252 19.3389 16.017 19.7499 15.1843 19.7499V21.2499C16.5838 21.2499 17.6511 20.533 18.5127 19.6805L17.4577 18.6142ZM5.48714 19.6805C6.34876 20.533 7.41609 21.2499 8.81555 21.2499V19.7499C7.98279 19.7499 7.27464 19.3389 6.5421 18.6142L5.48714 19.6805ZM14.7499 7.99994C14.7499 9.51872 13.5187 10.7499 11.9999 10.7499V12.2499C14.3471 12.2499 16.2499 10.3471 16.2499 7.99994H14.7499ZM11.9999 10.7499C10.4811 10.7499 9.24992 9.51872 9.24992 7.99994H7.74992C7.74992 10.3471 9.65271 12.2499 11.9999 12.2499V10.7499ZM9.24992 7.99994C9.24992 6.48116 10.4811 5.24994 11.9999 5.24994V3.74994C9.65271 3.74994 7.74992 5.65273 7.74992 7.99994H9.24992ZM11.9999 5.24994C13.5187 5.24994 14.7499 6.48116 14.7499 7.99994H16.2499C16.2499 5.65273 14.3471 3.74994 11.9999 3.74994V5.24994Z" fill="#909090"/>
</svg>
