<svg width="16" height="16" viewBox="0 0 16 16" fill="none" xmlns="http://www.w3.org/2000/svg">
<path d="M12 6.6665C12 6.6665 9.6418 7.6665 8 7.6665C6.35818 7.6665 4 6.6665 4 6.6665M8 8V8.96813M8 8.96813C8 9.35167 8.11027 9.72707 8.31767 10.0497L10 12.6667M8 8.96813C8 9.35167 7.88973 9.72707 7.68233 10.0497L6 12.6667M14.6673 8.00016C14.6673 11.6821 11.6825 14.6668 8.00065 14.6668C4.31875 14.6668 1.33398 11.6821 1.33398 8.00016C1.33398 4.31826 4.31875 1.3335 8.00065 1.3335C11.6825 1.3335 14.6673 4.31826 14.6673 8.00016ZM9.33268 4.66683C9.33268 5.40321 8.73575 6.00016 7.99935 6.00016C7.26295 6.00016 6.66602 5.40321 6.66602 4.66683C6.66602 3.93045 7.26295 3.3335 7.99935 3.3335C8.73575 3.3335 9.33268 3.93045 9.33268 4.66683Z" stroke="#909090" stroke-width="1.2" stroke-linecap="round"/>
</svg>
