<svg width="24" height="24" viewBox="0 0 24 24" fill="none" xmlns="http://www.w3.org/2000/svg">
<path d="M10.6853 11.929L15.6353 16.879C15.8175 17.0676 15.9183 17.3202 15.916 17.5824C15.9137 17.8446 15.8085 18.0954 15.6231 18.2808C15.4377 18.4662 15.1869 18.5714 14.9247 18.5737C14.6625 18.576 14.4099 18.4752 14.2213 18.293L8.5643 12.636C8.37683 12.4485 8.27152 12.1942 8.27152 11.929C8.27152 11.6639 8.37683 11.4095 8.5643 11.222L14.2213 5.56502C14.4099 5.38286 14.6625 5.28207 14.9247 5.28434C15.1869 5.28662 15.4377 5.39179 15.6231 5.5772C15.8085 5.76261 15.9137 6.01342 15.916 6.27562C15.9183 6.53781 15.8175 6.79042 15.6353 6.97902L10.6853 11.929V11.929Z" fill="#2E3192"/>
</svg>
