<svg width="46" height="51" viewBox="0 0 46 51" fill="none" xmlns="http://www.w3.org/2000/svg">
<path d="M23 19.6984L22.1032 20.5692C22.3386 20.8116 22.6621 20.9484 23 20.9484C23.3379 20.9484 23.6614 20.8116 23.8968 20.5692L23 19.6984ZM10.3592 14.3884L10.1421 15.6194L10.1421 15.6194L10.3592 14.3884ZM19.3023 47.2449L18.7436 48.3631L18.7436 48.3631L19.3023 47.2449ZM10.3592 44.4253L10.1421 45.6563L10.1421 45.6563L10.3592 44.4253ZM35.6408 14.3884L35.8579 15.6194L35.8579 15.6194L35.6408 14.3884ZM26.6977 47.2449L27.2564 48.3631L27.2564 48.3631L26.6977 47.2449ZM35.6408 44.4253L35.8579 45.6563L35.8579 45.6563L35.6408 44.4253ZM24.25 18.501C24.25 17.8106 23.6904 17.251 23 17.251C22.3096 17.251 21.75 17.8106 21.75 18.501H24.25ZM14.1426 3.59521C13.5672 3.97671 13.41 4.75241 13.7915 5.32777C14.173 5.90314 14.9487 6.06029 15.5241 5.67879L14.1426 3.59521ZM26.1392 11.4039C26.7303 11.7606 27.4986 11.5706 27.8553 10.9796C28.212 10.3885 28.022 9.62018 27.431 9.26346L26.1392 11.4039ZM18.5763 9.23838C17.9833 9.59182 17.7891 10.3591 18.1425 10.9521C18.4959 11.5451 19.2632 11.7393 19.8562 11.3859L18.5763 9.23838ZM30.4731 5.69986C31.0474 6.08293 31.8235 5.92788 32.2066 5.35356C32.5896 4.77924 32.4346 4.00311 31.8603 3.62004L30.4731 5.69986ZM23.8968 18.8276C22.2166 17.0973 17.7618 14.4242 10.5762 13.1574L10.1421 15.6194C16.9895 16.8266 20.8984 19.3285 22.1032 20.5692L23.8968 18.8276ZM19.861 46.1267C17.594 44.994 14.5023 43.8864 10.5762 43.1943L10.1421 45.6563C13.8423 46.3086 16.7025 47.3432 18.7436 48.3631L19.861 46.1267ZM0.75 21.7009V35.718H3.25V21.7009H0.75ZM10.5762 43.1943C8.4121 42.8127 6.87758 42.5408 5.75719 42.2325C4.62109 41.9199 4.14712 41.6269 3.9133 41.359L2.02961 43.0027C2.76725 43.848 3.84838 44.3002 5.0939 44.6429C6.35512 44.99 8.02874 45.2837 10.1421 45.6563L10.5762 43.1943ZM0.75 35.718C0.75 37.4702 0.747954 38.8946 0.880017 40.0156C1.01459 41.1578 1.30549 42.1728 2.02961 43.0027L3.9133 41.359C3.66597 41.0755 3.47114 40.6423 3.36285 39.7231C3.25205 38.7826 3.25 37.5322 3.25 35.718H0.75ZM10.5762 13.1574C8.84124 12.8515 7.38675 12.5909 6.17865 12.5836C4.89574 12.5758 3.77186 12.8488 2.73671 13.6701L4.29058 15.6286C4.76907 15.249 5.29067 15.0782 6.16346 15.0835C7.11107 15.0893 8.32252 15.2986 10.1421 15.6194L10.5762 13.1574ZM3.25 21.7009C3.25 19.7067 3.25411 18.3679 3.4219 17.3701C3.57801 16.4417 3.84979 15.9783 4.29058 15.6286L2.73671 13.6701C1.66385 14.5214 1.17881 15.6335 0.956511 16.9556C0.745887 18.2081 0.75 19.7946 0.75 21.7009H3.25ZM23.8968 20.5692C25.1016 19.3285 29.0105 16.8266 35.8579 15.6194L35.4238 13.1574C28.2382 14.4242 23.7834 17.0973 22.1032 18.8276L23.8968 20.5692ZM27.2564 48.3631C29.2975 47.3432 32.1577 46.3086 35.8579 45.6563L35.4238 43.1943C31.4977 43.8864 28.406 44.994 26.139 46.1267L27.2564 48.3631ZM42.75 21.7009V35.718H45.25V21.7009H42.75ZM35.8579 45.6563C37.9713 45.2837 39.6449 44.99 40.9061 44.6429C42.1516 44.3002 43.2328 43.848 43.9704 43.0027L42.0867 41.359C41.8529 41.6269 41.3789 41.9199 40.2428 42.2325C39.1224 42.5408 37.5879 42.8127 35.4238 43.1943L35.8579 45.6563ZM42.75 35.718C42.75 37.5322 42.748 38.7826 42.6372 39.7231C42.5289 40.6423 42.334 41.0755 42.0867 41.359L43.9704 43.0027C44.6945 42.1728 44.9854 41.1578 45.12 40.0156C45.252 38.8946 45.25 37.4702 45.25 35.718H42.75ZM35.8579 15.6194C37.6775 15.2986 38.8889 15.0893 39.8365 15.0835C40.7093 15.0782 41.2309 15.249 41.7094 15.6286L43.2633 13.6701C42.2281 12.8488 41.1043 12.5758 39.8214 12.5836C38.6133 12.5909 37.1588 12.8515 35.4238 13.1574L35.8579 15.6194ZM45.25 21.7009C45.25 19.7946 45.2541 18.2081 45.0435 16.9556C44.8212 15.6335 44.3361 14.5214 43.2633 13.6701L41.7094 15.6286C42.1502 15.9783 42.422 16.4417 42.5781 17.3701C42.7459 18.3679 42.75 19.7067 42.75 21.7009H45.25ZM18.7436 48.3631C19.7918 48.8869 20.6166 49.2994 21.243 49.5782C21.5577 49.7183 21.8513 49.8379 22.1181 49.9239C22.372 50.0057 22.6794 50.0834 23 50.0834V47.5834C23.0612 47.5834 23.0417 47.5949 22.8848 47.5444C22.7408 47.498 22.5398 47.419 22.2598 47.2943C21.6968 47.0437 20.9321 46.6619 19.861 46.1267L18.7436 48.3631ZM26.139 46.1267C25.0679 46.6619 24.3032 47.0437 23.7402 47.2943C23.4602 47.419 23.2592 47.498 23.1152 47.5444C22.9583 47.5949 22.9388 47.5834 23 47.5834V50.0834C23.3206 50.0834 23.628 50.0057 23.8819 49.9239C24.1487 49.8379 24.4423 49.7183 24.757 49.5782C25.3834 49.2994 26.2082 48.8869 27.2564 48.3631L26.139 46.1267ZM21.75 18.501V48.8334H24.25V18.501H21.75ZM22.9827 0.916992C19.7307 0.916992 16.6978 1.90091 14.1426 3.59521L15.5241 5.67879C17.6886 4.24361 20.2443 3.41699 22.9827 3.41699V0.916992ZM27.431 9.26346C26.1238 8.47455 24.6035 8.02104 22.9827 8.02104V10.521C24.1299 10.521 25.2059 10.8406 26.1392 11.4039L27.431 9.26346ZM22.9827 8.02104C21.3794 8.02104 19.8741 8.4649 18.5763 9.23838L19.8562 11.3859C20.7825 10.8339 21.8477 10.521 22.9827 10.521V8.02104ZM31.8603 3.62004C29.2973 1.91055 26.2506 0.916992 22.9827 0.916992V3.41699C25.7346 3.41699 28.3019 4.25168 30.4731 5.69986L31.8603 3.62004Z" fill="white"/>
</svg>
