<svg width="50" height="51" viewBox="0 0 50 51" fill="none" xmlns="http://www.w3.org/2000/svg">
<path d="M6.14346 37.6009L6.86043 36.577L6.86043 36.577L6.14346 37.6009ZM3.56492 35.0224L4.58886 34.3054L4.58886 34.3054L3.56492 35.0224ZM46.4338 35.0224L45.4098 34.3054L45.4098 34.3054L46.4338 35.0224ZM43.8552 37.6009L44.5722 38.6249L44.5722 38.6249L43.8552 37.6009ZM43.8552 4.06541L44.5722 3.04147L44.5722 3.04147L43.8552 4.06541ZM46.4338 6.64395L45.4098 7.36092L45.4098 7.36092L46.4338 6.64395ZM6.14346 4.06541L5.42649 3.04147L5.42649 3.04147L6.14346 4.06541ZM3.56492 6.64395L2.54098 5.92698L2.54098 5.92698L3.56492 6.64395ZM22.666 31.2503C21.9757 31.2503 21.416 31.8099 21.416 32.5003C21.416 33.1906 21.9757 33.7503 22.666 33.7503V31.2503ZM27.3327 33.7503C28.023 33.7503 28.5827 33.1906 28.5827 32.5003C28.5827 31.8099 28.023 31.2503 27.3327 31.2503V33.7503ZM30.0965 47.8563L29.0981 48.6083L29.0981 48.6083L30.0965 47.8563ZM29.8342 49.5857C30.2496 50.1371 31.0333 50.2474 31.5847 49.8321C32.1362 49.4167 32.2465 48.633 31.8311 48.0816L29.8342 49.5857ZM30.2449 39.9409C30.4882 39.2948 30.1618 38.5738 29.5157 38.3305C28.8696 38.0872 28.1487 38.4137 27.9054 39.0597L30.2449 39.9409ZM19.9022 47.8563L18.9037 47.1042L18.9037 47.1042L19.9022 47.8563ZM18.1676 48.0816C17.7522 48.633 17.8625 49.4167 18.414 49.8321C18.9654 50.2474 19.7491 50.1371 20.1645 49.5857L18.1676 48.0816ZM22.0933 39.0597C21.85 38.4137 21.1291 38.0872 20.483 38.3305C19.8369 38.5738 19.5105 39.2948 19.7538 39.9409L22.0933 39.0597ZM13.3327 47.5827C12.6423 47.5827 12.0827 48.1424 12.0827 48.8327C12.0827 49.5231 12.6423 50.0827 13.3327 50.0827V47.5827ZM36.666 50.0827C37.3564 50.0827 37.916 49.5231 37.916 48.8327C37.916 48.1424 37.3564 47.5827 36.666 47.5827V50.0827ZM20.3327 3.4165H29.666V0.916504H20.3327V3.4165ZM29.666 38.2498H20.3327V40.7498H29.666V38.2498ZM20.3327 38.2498C16.4799 38.2498 13.6879 38.2482 11.5167 38.0194C9.36786 37.7929 7.97163 37.3551 6.86043 36.577L5.42649 38.6249C7.02722 39.7457 8.89982 40.2574 11.2547 40.5056C13.5873 40.7515 16.5339 40.7498 20.3327 40.7498V38.2498ZM0.416016 20.8332C0.416016 24.6319 0.414392 27.5786 0.660265 29.9112C0.908484 32.266 1.42014 34.1386 2.54098 35.7394L4.58886 34.3054C3.81079 33.1942 3.373 31.798 3.14649 29.6491C2.91764 27.478 2.91602 24.686 2.91602 20.8332H0.416016ZM6.86043 36.577C5.97655 35.9581 5.20776 35.1893 4.58886 34.3054L2.54098 35.7394C3.32715 36.8621 4.30372 37.8387 5.42649 38.6249L6.86043 36.577ZM47.0827 20.8332C47.0827 24.686 47.0811 27.478 46.8522 29.6491C46.6257 31.798 46.1879 33.1942 45.4098 34.3054L47.4577 35.7394C48.5786 34.1386 49.0902 32.266 49.3384 29.9112C49.5843 27.5786 49.5827 24.6319 49.5827 20.8332H47.0827ZM29.666 40.7498C33.4648 40.7498 36.4114 40.7515 38.744 40.5056C41.0989 40.2574 42.9715 39.7457 44.5722 38.6249L43.1383 36.577C42.0271 37.3551 40.6308 37.7929 38.482 38.0194C36.3108 38.2482 33.5188 38.2498 29.666 38.2498V40.7498ZM45.4098 34.3054C44.7909 35.1893 44.0222 35.9581 43.1383 36.577L44.5722 38.6249C45.695 37.8387 46.6715 36.8621 47.4577 35.7394L45.4098 34.3054ZM29.666 3.4165C33.5188 3.4165 36.3108 3.41813 38.482 3.64698C40.6308 3.87349 42.0271 4.31128 43.1383 5.08935L44.5722 3.04147C42.9715 1.92063 41.0989 1.40897 38.744 1.16075C36.4114 0.914881 33.4648 0.916504 29.666 0.916504V3.4165ZM49.5827 20.8332C49.5827 17.0344 49.5843 14.0878 49.3384 11.7552C49.0902 9.40031 48.5786 7.5277 47.4577 5.92698L45.4098 7.36092C46.1879 8.47211 46.6257 9.86835 46.8522 12.0172C47.0811 14.1884 47.0827 16.9804 47.0827 20.8332H49.5827ZM43.1383 5.08935C44.0222 5.70825 44.7909 6.47703 45.4098 7.36092L47.4577 5.92698C46.6715 4.80421 45.695 3.82764 44.5722 3.04147L43.1383 5.08935ZM20.3327 0.916504C16.5339 0.916504 13.5873 0.914881 11.2547 1.16075C8.89982 1.40897 7.02722 1.92063 5.42649 3.04147L6.86043 5.08935C7.97163 4.31128 9.36786 3.87349 11.5167 3.64698C13.6879 3.41813 16.4799 3.4165 20.3327 3.4165V0.916504ZM2.91602 20.8332C2.91602 16.9804 2.91764 14.1884 3.14649 12.0172C3.373 9.86835 3.81079 8.47211 4.58886 7.36092L2.54098 5.92698C1.42014 7.5277 0.908484 9.40031 0.660265 11.7552C0.414392 14.0878 0.416016 17.0344 0.416016 20.8332H2.91602ZM5.42649 3.04147C4.30372 3.82764 3.32715 4.80421 2.54098 5.92698L4.58886 7.36092C5.20776 6.47703 5.97655 5.70825 6.86043 5.08935L5.42649 3.04147ZM22.666 33.7503H27.3327V31.2503H22.666V33.7503ZM29.0981 48.6083L29.8342 49.5857L31.8311 48.0816L31.095 47.1042L29.0981 48.6083ZM27.9054 39.0597C26.7193 42.2091 27.1573 46.0318 29.0981 48.6083L31.095 47.1042C29.7166 45.2743 29.3318 42.3653 30.2449 39.9409L27.9054 39.0597ZM18.9037 47.1042L18.1676 48.0816L20.1645 49.5857L20.9006 48.6083L18.9037 47.1042ZM19.7538 39.9409C20.6669 42.3653 20.2821 45.2743 18.9037 47.1042L20.9006 48.6083C22.8414 46.0318 23.2794 42.2091 22.0933 39.0597L19.7538 39.9409ZM13.3327 50.0827H36.666V47.5827H13.3327V50.0827Z" fill="white"/>
</svg>
