<svg width="56" height="57" viewBox="0 0 56 57" fill="none" xmlns="http://www.w3.org/2000/svg">
<path d="M37.3326 41.4168C38.023 41.4168 38.5826 40.8572 38.5826 40.1668C38.5826 39.4765 38.023 38.9168 37.3326 38.9168V41.4168ZM20.9993 38.9168C20.3089 38.9168 19.7493 39.4765 19.7493 40.1668C19.7493 40.8572 20.3089 41.4168 20.9993 41.4168V38.9168ZM37.3326 32.0835C38.023 32.0835 38.5826 31.5239 38.5826 30.8335C38.5826 30.1431 38.023 29.5835 37.3326 29.5835V32.0835ZM30.3326 29.5835C29.6423 29.5835 29.0826 30.1431 29.0826 30.8335C29.0826 31.5239 29.6423 32.0835 30.3326 32.0835V29.5835ZM41.3815 5.75497L41.7956 4.57553L41.3815 5.75497ZM47.2074 11.2382L48.3695 10.7776L48.3695 10.7776L47.2074 11.2382ZM9.2602 15.7919L10.4223 16.2524L10.4223 16.2524L9.2602 15.7919ZM19.4555 6.19633L19.0415 5.01689L19.0415 5.01689L19.4555 6.19633ZM12.1398 49.9716L11.4199 50.9934L12.1398 49.9716ZM10.144 48.0931L11.1223 47.315L10.144 48.0931ZM6.91602 28.4998C6.91602 29.1902 7.47566 29.7498 8.16602 29.7498C8.85637 29.7498 9.41602 29.1902 9.41602 28.4998H6.91602ZM15.9438 20.7221L15.9438 21.9721L15.9438 21.9721L15.9438 20.7221ZM23.5891 17.8397L22.3817 17.5162L22.3817 17.5162L23.5891 17.8397ZM20.8392 20.5896L21.1627 21.797L21.1627 21.797L20.8392 20.5896ZM31.4993 6.4165C32.1897 6.4165 32.7493 5.85686 32.7493 5.1665C32.7493 4.47615 32.1897 3.9165 31.4993 3.9165V6.4165ZM37.3326 38.9168H20.9993V41.4168H37.3326V38.9168ZM37.3326 29.5835H30.3326V32.0835H37.3326V29.5835ZM27.9993 50.5832H26.1963V53.0832H27.9993V50.5832ZM9.41602 34.8635V28.9241H6.91602V34.8635H9.41602ZM46.5827 18.7423V33.1665H49.0827V18.7423H46.5827ZM33.4084 6.4165C37.712 6.4165 39.543 6.43435 40.9675 6.93441L41.7956 4.57553C39.8674 3.89866 37.5005 3.9165 33.4084 3.9165V6.4165ZM49.0827 18.7423C49.0827 16.7833 49.0833 15.2536 49.0018 14.018C48.9196 12.7712 48.7499 11.7376 48.3695 10.7776L46.0454 11.6987C46.2902 12.3165 46.4332 13.0594 46.5072 14.1826C46.582 15.3168 46.5827 16.7503 46.5827 18.7423H49.0827ZM40.9675 6.93441C43.339 7.76691 45.1806 9.51652 46.0454 11.6987L48.3695 10.7776C47.2239 7.88694 44.814 5.63513 41.7956 4.57553L40.9675 6.93441ZM9.41602 28.9241C9.41602 25.4506 9.41665 22.9059 9.55008 20.8829C9.68277 18.8711 9.94298 17.4619 10.4223 16.2524L8.09812 15.3314C7.48323 16.883 7.19635 18.5829 7.0555 20.7184C6.91538 22.8427 6.91602 25.4835 6.91602 28.9241H9.41602ZM33.4084 3.9165C26.168 3.9165 22.227 3.89866 19.0415 5.01689L19.8696 7.37577C22.5513 6.43435 25.9565 6.4165 33.4084 6.4165V3.9165ZM10.4223 16.2524C12.0409 12.1679 15.4768 8.91779 19.8696 7.37577L19.0415 5.01689C14.0018 6.78601 9.99757 10.5384 8.09812 15.3314L10.4223 16.2524ZM26.1963 50.5832C22.3647 50.5832 19.5877 50.5816 17.435 50.3572C15.3021 50.1349 13.9325 49.7055 12.8598 48.9497L11.4199 50.9934C12.9894 52.0992 14.8433 52.6006 17.1758 52.8437C19.4883 53.0848 22.4184 53.0832 26.1963 53.0832V50.5832ZM6.91602 34.8635C6.91602 38.4141 6.91399 41.1862 7.17183 43.3775C7.43311 45.5982 7.97498 47.3742 9.16569 48.8712L11.1223 47.315C10.335 46.3252 9.8879 45.0673 9.6547 43.0854C9.41804 41.074 9.41602 38.4747 9.41602 34.8635H6.91602ZM12.8598 48.9497C12.1983 48.4837 11.6136 47.9328 11.1223 47.315L9.16569 48.8712C9.80776 49.6785 10.5673 50.3927 11.4199 50.9934L12.8598 48.9497ZM27.9993 53.0832C32.6408 53.0832 36.2403 53.0855 39.0375 52.7316C41.8633 52.374 44.0594 51.6337 45.7849 50.0097L44.0714 48.1892C42.8924 49.2989 41.2988 49.9255 38.7237 50.2513C36.12 50.5808 32.7074 50.5832 27.9993 50.5832V53.0832ZM46.5827 33.1665C46.5827 37.6038 46.5797 40.7982 46.2322 43.2309C45.891 45.6196 45.2398 47.0896 44.0714 48.1892L45.7849 50.0097C47.5211 48.3757 48.3221 46.2791 48.7071 43.5845C49.0857 40.934 49.0827 37.5288 49.0827 33.1665H46.5827ZM9.41602 28.4998C9.41602 24.8946 12.3386 21.9721 15.9438 21.9721V19.4721C10.9579 19.4721 6.91602 23.5139 6.91602 28.4998H9.41602ZM22.3817 17.5162C22.1376 18.4268 21.4263 19.1381 20.5157 19.3821L21.1627 21.797C22.9361 21.3218 24.3213 19.9366 24.7965 18.1632L22.3817 17.5162ZM31.4993 3.9165C26.5134 3.9165 22.4716 7.95838 22.4716 12.9443H24.9716C24.9716 9.33909 27.8942 6.4165 31.4993 6.4165V3.9165ZM22.4716 12.9443C22.4716 13.3648 22.4899 13.7968 22.5091 14.2101C22.5287 14.6322 22.549 15.0338 22.5574 15.4341C22.5741 16.2421 22.5374 16.9351 22.3817 17.5162L24.7965 18.1632C25.0455 17.2339 25.075 16.2559 25.0568 15.3822C25.0477 14.9416 25.0252 14.4997 25.0064 14.0942C24.9872 13.68 24.9716 13.3005 24.9716 12.9443H22.4716ZM15.9438 21.9721C16.3 21.9721 16.6795 21.9877 17.0937 22.0069C17.4992 22.0257 17.9411 22.0482 18.3817 22.0573C19.2554 22.0755 20.2334 22.046 21.1627 21.797L20.5157 19.3821C19.9346 19.5378 19.2416 19.5746 18.4336 19.5578C18.0333 19.5495 17.6317 19.5292 17.2096 19.5096C16.7963 19.4904 16.3644 19.4721 15.9438 19.4721L15.9438 21.9721Z" fill="white"/>
</svg>
