<svg width="16" height="13" viewBox="0 0 16 13" fill="none" xmlns="http://www.w3.org/2000/svg">
<path d="M4.66732 4.16684L6.62866 5.32646C7.77213 6.00252 8.22917 6.00252 9.37264 5.32646L11.334 4.16684M6.06653 0.857871C7.36019 0.82537 8.64111 0.825371 9.93477 0.857875C12.0338 0.910614 13.0833 0.936984 13.8374 1.69394C14.5914 2.45089 14.6132 3.47274 14.6568 5.51643C14.6708 6.17355 14.6708 6.82679 14.6568 7.48391C14.6132 9.5276 14.5914 10.5494 13.8374 11.3064C13.0833 12.0634 12.0338 12.0897 9.93477 12.1425C8.64111 12.175 7.36019 12.175 6.06654 12.1425C3.96754 12.0897 2.91804 12.0634 2.16396 11.3064C1.40987 10.5494 1.38808 9.5276 1.34449 7.48391C1.33048 6.82679 1.33048 6.17354 1.34449 5.51642C1.38808 3.47273 1.40987 2.45088 2.16395 1.69393C2.91804 0.936972 3.96754 0.910605 6.06653 0.857871Z" stroke="white" stroke-width="1.5" stroke-linecap="round" stroke-linejoin="round"/>
</svg>
