<svg width="56" height="57" viewBox="0 0 56 57" fill="none" xmlns="http://www.w3.org/2000/svg">
<path d="M27.3144 40.166C27.3144 40.8563 27.8741 41.416 28.5644 41.416C29.2548 41.416 29.8144 40.8563 29.8144 40.166H27.3144ZM26.2311 24.916C25.5408 24.916 24.9811 25.4756 24.9811 26.166C24.9811 26.8563 25.5408 27.416 26.2311 27.416V24.916ZM28.2227 26.5077L29.1066 25.6238L29.1066 25.6238L28.2227 26.5077ZM27.9807 17.916C27.2903 17.916 26.7307 18.4756 26.7307 19.166C26.7307 19.8563 27.2903 20.416 27.9807 20.416V17.916ZM28.0016 20.416C28.692 20.416 29.2516 19.8563 29.2516 19.166C29.2516 18.4756 28.692 17.916 28.0016 17.916V20.416ZM52.5827 28.4989C52.5827 14.9219 41.5763 3.91553 27.9993 3.91553V6.41553C40.1956 6.41553 50.0827 16.3026 50.0827 28.4989H52.5827ZM27.9993 3.91553C14.4223 3.91553 3.41602 14.9219 3.41602 28.4989H5.91602C5.91602 16.3026 15.8031 6.41553 27.9993 6.41553V3.91553ZM3.41602 28.4989C3.41602 42.0759 14.4223 53.0822 27.9993 53.0822V50.5822C15.8031 50.5822 5.91602 40.6951 5.91602 28.4989H3.41602ZM27.9993 53.0822C41.5763 53.0822 52.5827 42.0759 52.5827 28.4989H50.0827C50.0827 40.6951 40.1956 50.5822 27.9993 50.5822V53.0822ZM27.3144 28.4993V40.166H29.8144V28.4993H27.3144ZM26.2311 27.416C26.8164 27.416 27.1297 27.4186 27.3447 27.4475C27.5238 27.4716 27.439 27.4917 27.3389 27.3916L29.1066 25.6238C28.6648 25.182 28.1341 25.0312 27.6778 24.9698C27.2575 24.9133 26.7457 24.916 26.2311 24.916V27.416ZM29.8144 28.4993C29.8144 27.9847 29.8171 27.473 29.7606 27.0526C29.6992 26.5963 29.5484 26.0656 29.1066 25.6238L27.3389 27.3916C27.2387 27.2915 27.2588 27.2066 27.2829 27.3857C27.3118 27.6008 27.3144 27.914 27.3144 28.4993H29.8144ZM27.9807 20.416H28.0016V17.916H27.9807V20.416Z" fill="white"/>
</svg>
