<svg width="28" height="28" viewBox="0 0 28 28" fill="none" xmlns="http://www.w3.org/2000/svg">
<path fill-rule="evenodd" clip-rule="evenodd" d="M9.023 14C9.023 11.2551 11.2542 9.02302 14 9.02302C16.7457 9.02302 18.977 11.2551 18.977 14C18.977 16.7449 16.7449 18.977 14 18.977C11.2551 18.977 9.023 16.7449 9.023 14ZM11.8498 16.1504C12.4201 16.7205 13.1936 17.0408 14 17.0406C14.8064 17.0405 15.5798 16.7201 16.1499 16.1498C16.7201 15.5795 17.0403 14.806 17.0402 13.9996C17.0401 13.1932 16.7196 12.4198 16.1493 11.8497C15.579 11.2795 14.8055 10.9593 13.9991 10.9594C13.1927 10.9595 12.4193 11.28 11.8492 11.8503C11.2791 12.4206 10.9588 13.194 10.9589 14.0005C10.9591 14.8069 11.2795 15.5802 11.8498 16.1504Z" fill="white"/>
<path d="M19.6498 8.06851C19.4538 7.93739 19.2233 7.86732 18.9875 7.86715C18.2402 7.86715 17.794 8.40265 17.794 9.06065C17.7942 9.29645 17.8642 9.52692 17.9954 9.72291C18.1265 9.9189 18.3127 10.0716 18.5306 10.1618C18.7485 10.2519 18.9882 10.2755 19.2195 10.2294C19.4508 10.1834 19.6632 10.0698 19.8299 9.90309C19.9967 9.73635 20.1102 9.52392 20.1563 9.29266C20.2023 9.06139 20.1788 8.82167 20.0886 8.60378C19.9985 8.38589 19.8457 8.19962 19.6498 8.06851Z" fill="white"/>
<path fill-rule="evenodd" clip-rule="evenodd" d="M10.1098 4.375H17.8894C19.4101 4.3757 20.8684 4.98011 21.9437 6.05544C23.019 7.13076 23.6234 8.58901 23.6241 10.1097V17.8894C23.623 19.4101 23.0184 20.8681 21.9432 21.9435C20.868 23.0188 19.4101 23.6236 17.8894 23.625H10.1098C8.589 23.6238 7.13089 23.0192 6.05564 21.9437C4.98039 20.8683 4.37593 19.4101 4.375 17.8894V10.1097C4.37616 8.58916 4.98073 7.13117 6.05595 6.05595C7.13117 4.98073 8.58916 4.37616 10.1098 4.375ZM20.5756 20.5756C21.288 19.8631 21.6884 18.8969 21.6886 17.8894L21.6877 10.1097C21.6875 9.10243 21.2873 8.13643 20.575 7.42415C19.8627 6.71187 18.8967 6.31161 17.8894 6.31137H10.1098C9.61091 6.31126 9.11693 6.40943 8.65604 6.60028C8.19515 6.79112 7.77637 7.0709 7.42364 7.42364C7.0709 7.77637 6.79112 8.19515 6.60028 8.65604C6.40943 9.11693 6.31126 9.61091 6.31138 10.1097V17.8894C6.31126 18.3883 6.40942 18.8823 6.60026 19.3432C6.79109 19.8042 7.07086 20.223 7.42358 20.5758C7.77631 20.9286 8.19508 21.2085 8.65597 21.3994C9.11687 21.5903 9.61087 21.6886 10.1098 21.6886H17.8894C18.8969 21.6884 19.8631 21.288 20.5756 20.5756Z" fill="white"/>
</svg>
