<svg width="56" height="57" viewBox="0 0 56 57" fill="none" xmlns="http://www.w3.org/2000/svg">
<path d="M8.8138 28.3653C6.60175 24.5082 5.53366 21.3586 4.88964 18.166C3.93713 13.4442 6.11691 8.83172 9.7279 5.88861C11.2541 4.64473 13.0036 5.06971 13.906 6.68877L15.9434 10.344C17.5584 13.2412 18.3658 14.6898 18.2057 16.2255C18.0455 17.7613 16.9565 19.0122 14.7786 21.5138L8.8138 28.3653ZM8.8138 28.3653C13.2912 36.1725 20.3176 43.2028 28.1338 47.6854M28.1338 47.6854C31.991 49.8974 35.1406 50.9655 38.3332 51.6095C43.055 52.562 47.6675 50.3823 50.6106 46.7713C51.8545 45.2451 51.4295 43.4956 49.8104 42.5932L46.1552 40.5557C43.258 38.9408 41.8094 38.1334 40.2736 38.2935C38.7378 38.4537 37.487 39.5426 34.9853 41.7206L28.1338 47.6854Z" stroke="white" stroke-width="2.5" stroke-linejoin="round"/>
<path d="M28 16.833H30C30.9428 16.833 31.4142 16.833 31.7071 17.1178C32 17.4025 32 17.8608 32 18.7775C32 20.6107 32 21.5273 31.4142 22.0968C30.9687 22.53 30.3167 22.6337 29.2005 22.6585C28.628 22.6713 28.3418 22.6776 28.1709 22.8476C28 23.0176 28 23.2894 28 23.833V26.5552C28 27.4718 28 27.9302 28.2929 28.2149C28.5858 28.4997 29.0572 28.4997 30 28.4997H32M42 16.833V22.6663M42 22.6663H38.6C37.8458 22.6663 37.4686 22.6663 37.2343 22.4385C37 22.2107 37 21.8441 37 21.1108V16.833M42 22.6663V28.4997" stroke="white" stroke-width="2.5" stroke-linecap="round" stroke-linejoin="round"/>
<path d="M23.332 10.5452C23.5398 10.3119 23.7555 10.0832 23.9792 9.8595C30.2366 3.60217 40.3817 3.60217 46.639 9.8595C52.8964 16.1168 52.8964 26.262 46.639 32.5193C46.4153 32.743 46.1866 32.9588 45.9533 33.1665" stroke="white" stroke-width="2.5" stroke-linecap="round"/>
</svg>
