<svg width="16" height="16" viewBox="0 0 16 16" fill="none" xmlns="http://www.w3.org/2000/svg">
<path d="M3.33301 10C2.80257 10 2.29387 9.78929 1.91879 9.41421C1.54372 9.03914 1.33301 8.53043 1.33301 8C1.33301 7.46957 1.54372 6.96086 1.91879 6.58579C2.29387 6.21071 2.80257 6 3.33301 6C3.86344 6 4.37215 6.21071 4.74722 6.58579C5.12229 6.96086 5.33301 7.46957 5.33301 8C5.33301 8.53043 5.12229 9.03914 4.74722 9.41421C4.37215 9.78929 3.86344 10 3.33301 10ZM12.6663 10C12.1359 10 11.6272 9.78929 11.2521 9.41421C10.8771 9.03914 10.6663 8.53043 10.6663 8C10.6663 7.46957 10.8771 6.96086 11.2521 6.58579C11.6272 6.21071 12.1359 6 12.6663 6C13.1968 6 13.7055 6.21071 14.0806 6.58579C14.4556 6.96086 14.6663 7.46957 14.6663 8C14.6663 8.53043 14.4556 9.03914 14.0806 9.41421C13.7055 9.78929 13.1968 10 12.6663 10ZM7.99967 10C7.46924 10 6.96053 9.78929 6.58546 9.41421C6.21039 9.03914 5.99967 8.53043 5.99967 8C5.99967 7.46957 6.21039 6.96086 6.58546 6.58579C6.96053 6.21071 7.46924 6 7.99967 6C8.53011 6 9.03882 6.21071 9.41389 6.58579C9.78896 6.96086 9.99967 7.46957 9.99967 8C9.99967 8.53043 9.78896 9.03914 9.41389 9.41421C9.03882 9.78929 8.53011 10 7.99967 10Z" fill="#1B1B1B"/>
</svg>
