<svg width="16" height="15" viewBox="0 0 16 15" fill="none" xmlns="http://www.w3.org/2000/svg">
<path d="M2.51841 7.46161C1.88639 6.35958 1.58123 5.45969 1.39722 4.54752C1.12508 3.19843 1.74787 1.88058 2.77958 1.03969C3.21563 0.684296 3.71548 0.805719 3.97333 1.26831L4.55545 2.31265C5.01685 3.14042 5.24756 3.5543 5.2018 3.9931C5.15604 4.4319 4.84491 4.78928 4.22264 5.50404L2.51841 7.46161ZM2.51841 7.46161C3.79767 9.69222 5.80522 11.7009 8.03842 12.9816M8.03842 12.9816C9.14046 13.6136 10.0403 13.9188 10.9525 14.1028C12.3016 14.375 13.6195 13.7522 14.4603 12.7205C14.8157 12.2844 14.6943 11.7846 14.2317 11.5267L13.1874 10.9446C12.3596 10.4832 11.9457 10.2525 11.5069 10.2982C11.0681 10.344 10.7108 10.6551 9.99599 11.2774L8.03842 12.9816Z" stroke="white" stroke-width="1.5" stroke-linejoin="round"/>
</svg>
