<svg width="54" height="41" viewBox="0 0 54 41" fill="none" xmlns="http://www.w3.org/2000/svg">
<path d="M48.6198 24.9624L47.8571 25.9528L47.8571 25.9528L48.6198 24.9624ZM51.861 31.861L50.8905 31.0733L50.8905 31.0733L51.861 31.861ZM47.4734 33.2497C46.783 33.2497 46.2234 33.8093 46.2234 34.4997C46.2234 35.19 46.783 35.7497 47.4734 35.7497V33.2497ZM43.4466 21.5881C42.759 21.5259 42.1512 22.0328 42.089 22.7204C42.0268 23.4079 42.5338 24.0157 43.2213 24.0779L43.4466 21.5881ZM5.38149 24.9624L6.14414 25.9528L6.14414 25.9528L5.38149 24.9624ZM2.14026 31.861L3.11081 31.0733L3.11081 31.0733L2.14026 31.861ZM6.52789 35.7497C7.21824 35.7497 7.77789 35.19 7.77789 34.4997C7.77789 33.8093 7.21824 33.2497 6.52789 33.2497V35.7497ZM10.7799 24.0779C11.4675 24.0157 11.9744 23.4079 11.9122 22.7204C11.85 22.0328 11.2422 21.5259 10.5547 21.5881L10.7799 24.0779ZM11.834 19.4163C12.5243 19.4163 13.084 18.8567 13.084 18.1663C13.084 17.476 12.5243 16.9163 11.834 16.9163V19.4163ZM11.834 7.74967C12.5243 7.74967 13.084 7.19003 13.084 6.49967C13.084 5.80932 12.5243 5.24967 11.834 5.24967V7.74967ZM17.8628 27.7591L17.2054 26.6959L17.2054 26.6959L17.8628 27.7591ZM36.1384 27.7591L36.7958 26.6959L36.7958 26.6959L36.1384 27.7591ZM13.0349 36.0103L12.1557 36.8989L12.1557 36.8989L13.0349 36.0103ZM40.9663 36.0103L40.0871 35.1217L40.0871 35.1217L40.9663 36.0103ZM47.8571 25.9528C48.785 26.6673 50.0154 27.4515 50.8183 28.4678C51.1977 28.9481 51.3816 29.368 51.4124 29.7331C51.44 30.0589 51.36 30.4948 50.8905 31.0733L52.8316 32.6488C53.6401 31.6526 53.994 30.5929 53.9036 29.5226C53.8164 28.4915 53.3303 27.6147 52.78 26.9181C51.7234 25.5805 50.0552 24.4901 49.3824 23.972L47.8571 25.9528ZM50.8905 31.0733C49.7081 32.5301 48.6388 33.2497 47.4734 33.2497V35.7497C49.8047 35.7497 51.5167 34.2688 52.8316 32.6487L50.8905 31.0733ZM43.2213 24.0779C44.8148 24.2221 46.4083 24.8371 47.8571 25.9528L49.3824 23.972C47.5771 22.5818 45.5371 21.7772 43.4466 21.5881L43.2213 24.0779ZM45.5839 12.333C45.5839 14.8643 43.5319 16.9163 41.0006 16.9163V19.4163C44.9126 19.4163 48.0839 16.245 48.0839 12.333H45.5839ZM41.0006 7.74967C43.5319 7.74967 45.5839 9.8017 45.5839 12.333H48.0839C48.0839 8.42099 44.9126 5.24967 41.0006 5.24967V7.74967ZM4.61884 23.972C3.94611 24.4901 2.27789 25.5805 1.22126 26.9181C0.670967 27.6147 0.184861 28.4915 0.0977153 29.5226C0.00724618 30.5929 0.361197 31.6526 1.1697 32.6488L3.11081 31.0733C2.64128 30.4948 2.5613 30.0589 2.58883 29.7331C2.61969 29.368 2.80353 28.9481 3.18298 28.4678C3.98583 27.4515 5.21626 26.6673 6.14414 25.9528L4.61884 23.972ZM1.1697 32.6488C2.48454 34.2687 4.19653 35.7497 6.52789 35.7497V33.2497C5.3625 33.2497 4.29321 32.5301 3.11081 31.0733L1.1697 32.6488ZM10.5547 21.5881C8.4642 21.7772 6.42421 22.5818 4.61884 23.972L6.14414 25.9528C7.59297 24.8371 9.18649 24.2221 10.7799 24.0779L10.5547 21.5881ZM4.75065 12.333C4.75065 16.245 7.92197 19.4163 11.834 19.4163V16.9163C9.30268 16.9163 7.25065 14.8643 7.25065 12.333H4.75065ZM11.834 5.24967C7.92197 5.24967 4.75065 8.42099 4.75065 12.333H7.25065C7.25065 9.8017 9.30268 7.74967 11.834 7.74967V5.24967ZM18.5202 28.8223C23.7081 25.6144 30.293 25.6144 35.481 28.8223L36.7958 26.6959C30.8021 22.9898 23.199 22.9898 17.2054 26.6959L18.5202 28.8223ZM19.5704 40.4163H34.4308V37.9163H19.5704V40.4163ZM13.914 35.1217C13.1516 34.3674 13.0532 33.8279 13.0909 33.4701C13.1359 33.0423 13.4119 32.5178 14.0181 31.9016C15.263 30.6363 17.1929 29.643 18.5202 28.8223L17.2054 26.6959C16.1485 27.3495 13.7608 28.5984 12.2359 30.1484C11.4572 30.9399 10.7353 31.9664 10.6046 33.2084C10.4665 34.5206 11.0145 35.7699 12.1557 36.8989L13.914 35.1217ZM35.481 28.8223C36.8082 29.643 38.7382 30.6363 39.9831 31.9017C40.5892 32.5178 40.8652 33.0423 40.9103 33.4701C40.9479 33.8279 40.8496 34.3674 40.0871 35.1217L41.8454 36.8989C42.9866 35.7699 43.5346 34.5206 43.3965 33.2084C43.2658 31.9664 42.5439 30.9399 41.7652 30.1484C40.2403 28.5984 37.8526 27.3495 36.7958 26.6959L35.481 28.8223ZM40.0871 35.1217C38.3349 36.8553 36.5628 37.9163 34.4308 37.9163V40.4163C37.5073 40.4163 39.878 38.8454 41.8454 36.8989L40.0871 35.1217ZM12.1557 36.8989C14.1232 38.8454 16.4939 40.4163 19.5704 40.4163V37.9163C17.4384 37.9163 15.6663 36.8553 13.914 35.1217L12.1557 36.8989ZM33.9172 9.99967C33.9172 13.8196 30.8205 16.9163 27.0006 16.9163V19.4163C32.2013 19.4163 36.4172 15.2004 36.4172 9.99967H33.9172ZM27.0006 16.9163C23.1806 16.9163 20.0839 13.8196 20.0839 9.99967H17.5839C17.5839 15.2004 21.7999 19.4163 27.0006 19.4163V16.9163ZM20.0839 9.99967C20.0839 6.1797 23.1806 3.08301 27.0006 3.08301V0.583008C21.7999 0.583008 17.5839 4.79899 17.5839 9.99967H20.0839ZM27.0006 3.08301C30.8205 3.08301 33.9172 6.17971 33.9172 9.99967H36.4172C36.4172 4.79899 32.2013 0.583008 27.0006 0.583008V3.08301Z" fill="white"/>
</svg>
