<svg width="16" height="16" viewBox="0 0 16 16" fill="none" xmlns="http://www.w3.org/2000/svg">
<path d="M8.00065 5.3335C7.05784 5.3335 6.58644 5.3335 6.29354 5.0406C6.00065 4.74771 6.00065 4.27631 6.00065 3.3335C6.00065 2.39069 6.00065 1.91928 6.29354 1.62639C6.58644 1.3335 7.05784 1.3335 8.00065 1.3335C8.94346 1.3335 9.41486 1.3335 9.70776 1.62639C10.0007 1.91928 10.0007 2.39069 10.0007 3.3335C10.0007 4.27631 10.0007 4.74771 9.70776 5.0406C9.41486 5.3335 8.94346 5.3335 8.00065 5.3335ZM8.00065 5.3335L8.00065 6.00016M3.33398 10.6668C4.27679 10.6668 4.7482 10.6668 5.04109 10.9597C5.33398 11.2526 5.33398 11.724 5.33398 12.6668C5.33398 13.6096 5.33398 14.081 5.04109 14.3739C4.7482 14.6668 4.27679 14.6668 3.33398 14.6668C2.39118 14.6668 1.91977 14.6668 1.62688 14.3739C1.33398 14.081 1.33398 13.6096 1.33398 12.6668C1.33398 11.724 1.33398 11.2526 1.62688 10.9597C1.91977 10.6668 2.39118 10.6668 3.33398 10.6668ZM3.33398 10.6668L3.33398 10.0002C3.33398 9.37891 3.33398 9.06828 3.45239 8.82325C3.61027 8.49655 3.9131 8.23698 4.29425 8.10166C4.58012 8.00016 4.94252 8.00016 5.66732 8.00016C6.39212 8.00016 6.75451 8.00016 7.04038 7.89867C7.42154 7.76334 7.72436 7.50378 7.88224 7.17707C8.00065 6.93205 8.00065 6.62141 8.00065 6.00016M12.6673 10.6668C13.6101 10.6668 14.0815 10.6668 14.3744 10.9597C14.6673 11.2526 14.6673 11.724 14.6673 12.6668C14.6673 13.6096 14.6673 14.081 14.3744 14.3739C14.0815 14.6668 13.6101 14.6668 12.6673 14.6668C11.7245 14.6668 11.2531 14.6668 10.9602 14.3739C10.6673 14.081 10.6673 13.6096 10.6673 12.6668C10.6673 11.724 10.6673 11.2526 10.9602 10.9597C11.2531 10.6668 11.7245 10.6668 12.6673 10.6668ZM12.6673 10.6668V10.0002C12.6673 9.37891 12.6673 9.06828 12.5489 8.82325C12.391 8.49655 12.0882 8.23698 11.707 8.10166C11.4212 8.00016 11.0588 8.00016 10.334 8.00016C9.60919 8.00016 9.24679 8.00016 8.96092 7.89867C8.57977 7.76334 8.27694 7.50378 8.11906 7.17707C8.00065 6.93205 8.00065 6.62142 8.00065 6.00016" stroke="#909090" stroke-width="1.5" stroke-linecap="round" stroke-linejoin="round"/>
</svg>
