<svg width="28" height="28" viewBox="0 0 28 28" fill="none" xmlns="http://www.w3.org/2000/svg">
<path d="M21.2844 7.27037C21.2844 7.27037 18.9613 6.97812 13.972 6.97812C9.14463 6.97812 6.71475 7.27037 6.71475 7.27037C6.09413 7.2706 5.49901 7.5173 5.06024 7.95623C4.62148 8.39516 4.375 8.99037 4.375 9.61099V18.3907C4.37489 18.6981 4.43531 19.0025 4.55283 19.2865C4.67036 19.5705 4.84267 19.8286 5.05993 20.0461C5.2772 20.2635 5.53516 20.436 5.8191 20.5537C6.10303 20.6715 6.40737 20.7321 6.71475 20.7322C6.71475 20.7322 8.974 21.0227 13.972 21.0227C18.9674 21.0227 21.2844 20.7322 21.2844 20.7322C21.5919 20.7325 21.8964 20.6721 22.1806 20.5545C22.4647 20.4369 22.7229 20.2644 22.9403 20.0469C23.1577 19.8294 23.3301 19.5712 23.4476 19.287C23.565 19.0028 23.6253 18.6983 23.625 18.3907V9.60924C23.625 9.30195 23.5644 8.99767 23.4468 8.71379C23.3291 8.42991 23.1567 8.172 22.9393 7.95479C22.722 7.73758 22.4639 7.56534 22.18 7.4479C21.896 7.33047 21.5917 7.27014 21.2844 7.27037ZM11.4284 17.4781V10.5262L17.6706 14L11.4284 17.4781Z" fill="white"/>
</svg>
